<svg width="27" height="27" viewBox="0 0 27 27" fill="none" xmlns="http://www.w3.org/2000/svg">
<path d="M10 10V8C10 7.46957 10.2049 6.96086 10.5695 6.58579C10.9342 6.21071 11.4287 6 11.9444 6H22.0556C22.5713 6 23.0658 6.21071 23.4305 6.58579C23.7951 6.96086 24 7.46957 24 8V20C24 20.5304 23.7951 21.0391 23.4305 21.4142C23.0658 21.7893 22.5713 22 22.0556 22H11.9444C11.4287 22 10.9342 21.7893 10.5695 21.4142C10.2049 21.0391 10 20.5304 10 20V18" stroke="black" stroke-width="1.5" stroke-linecap="round" stroke-linejoin="round"/>
<path d="M15 18L19 14L15 10" stroke="black" stroke-width="1.5" stroke-linecap="round" stroke-linejoin="round"/>
<path d="M4 14H18" stroke="black" stroke-width="1.5" stroke-linecap="round" stroke-linejoin="round"/>
</svg>
