<svg width="17" height="19" viewBox="0 0 17 19" fill="none" xmlns="http://www.w3.org/2000/svg">
<path d="M12.0642 12.2227C12.5941 11.938 13.2007 11.7759 13.8467 11.7759H13.8489C13.9146 11.7759 13.9452 11.6971 13.8971 11.6533C13.2253 11.0504 12.4579 10.5635 11.6263 10.2124C11.6175 10.2081 11.6087 10.2059 11.6 10.2015C12.9598 9.2139 13.8445 7.60879 13.8445 5.79784C13.8445 2.79784 11.4182 0.367188 8.4248 0.367188C5.43137 0.367188 3.00728 2.79784 3.00728 5.79784C3.00728 7.60879 3.89195 9.2139 5.254 10.2015C5.24524 10.2059 5.23648 10.2081 5.22772 10.2124C4.24889 10.6263 3.37079 11.2197 2.61531 11.9774C1.8642 12.7272 1.26622 13.6159 0.854727 14.5942C0.449865 15.5521 0.231365 16.5785 0.210931 17.6183C0.210347 17.6417 0.214446 17.6649 0.222988 17.6867C0.231529 17.7084 0.244341 17.7283 0.260666 17.745C0.276992 17.7617 0.296502 17.775 0.318047 17.7841C0.339592 17.7932 0.362735 17.7979 0.386114 17.7978H1.69779C1.79195 17.7978 1.87079 17.7212 1.87297 17.627C1.91677 15.9365 2.59341 14.3533 3.79122 13.1533C5.02845 11.9117 6.67517 11.2285 8.42699 11.2285C9.6686 11.2285 10.8598 11.5723 11.8868 12.2161C11.9132 12.2327 11.9435 12.242 11.9746 12.2432C12.0058 12.2443 12.0367 12.2372 12.0642 12.2227ZM8.42699 9.56427C7.42407 9.56427 6.48027 9.1723 5.7686 8.46062C5.41844 8.11137 5.14085 7.69629 4.95181 7.23929C4.76277 6.78229 4.66602 6.2924 4.66714 5.79784C4.66714 4.79273 5.05911 3.84675 5.7686 3.13507C6.47808 2.42339 7.42188 2.03142 8.42699 2.03142C9.4321 2.03142 10.3737 2.42339 11.0854 3.13507C11.4355 3.48432 11.7131 3.8994 11.9022 4.3564C12.0912 4.8134 12.188 5.30329 12.1868 5.79784C12.1868 6.80295 11.7949 7.74894 11.0854 8.46062C10.3737 9.1723 9.42991 9.56427 8.42699 9.56427ZM16.481 14.7759H14.6416V12.9365C14.6416 12.8402 14.5628 12.7613 14.4664 12.7613H13.2401C13.1438 12.7613 13.0649 12.8402 13.0649 12.9365V14.7759H11.2255C11.1292 14.7759 11.0503 14.8548 11.0503 14.9511V16.1774C11.0503 16.2738 11.1292 16.3526 11.2255 16.3526H13.0649V18.192C13.0649 18.2884 13.1438 18.3672 13.2401 18.3672H14.4664C14.5628 18.3672 14.6416 18.2884 14.6416 18.192V16.3526H16.481C16.5774 16.3526 16.6562 16.2738 16.6562 16.1774V14.9511C16.6562 14.8548 16.5774 14.7759 16.481 14.7759Z" fill="black"/>
</svg>
